{
  "accessors": [
    {
      "bufferView": 2,
      "componentType": 5126,
      "count": 1947,
      "max": [
        57.382915496826172,
        28.170461654663086,
        -1.6586195230484009
      ],
      "min": [
        -24.563381195068359,
        0.73149710893630981,
        -28.915777206420898
      ],
      "type": "VEC3"
    },
    {
      "bufferView": 2,
      "byteOffset": 23364,
      "componentType": 5126,
      "count": 1947,
      "max": [
        1,
        1,
        1
      ],
      "min": [
        -1,
        -1,
        -1
      ],
      "type": "VEC3"
    },
    {
      "bufferView": 3,
      "componentType": 5126,
      "count": 1947,
      "max": [
        0.99999099969863892,
        0.99999380111694336,
        0.99996846914291382,
        1
      ],
      "min": [
        -1,
        -0.99999654293060303,
        -0.99997252225875854,
        -1
      ],
      "type": "VEC4"
    },
    {
      "bufferView": 1,
      "componentType": 5126,
      "count": 1947,
      "max": [
        0.99753874540328979,
        0.92977583408355713
      ],
      "min": [
        0.013002365827560425,
        0.04148271307349205
      ],
      "type": "VEC2"
    },
    {
      "bufferView": 0,
      "componentType": 5125,
      "count": 6342,
      "max": [
        1946
      ],
      "min": [
        0
      ],
      "type": "SCALAR"
    },
    {
      "bufferView": 2,
      "byteOffset": 46728,
      "componentType": 5126,
      "count": 12481,
      "max": [
        71.579803466796875,
        3.7746493816375732,
        39.438461303710938
      ],
      "min": [
        -39.523910522460938,
        -0.45518958568572998,
        -71.724472045898438
      ],
      "type": "VEC3"
    },
    {
      "bufferView": 2,
      "byteOffset": 196500,
      "componentType": 5126,
      "count": 12481,
      "max": [
        0.84862929582595825,
        1,
        0.72140347957611084
      ],
      "min": [
        -0.55926728248596191,
        0.40394377708435059,
        -0.63399344682693481
      ],
      "type": "VEC3"
    },
    {
      "bufferView": 3,
      "byteOffset": 31152,
      "componentType": 5126,
      "count": 12481,
      "max": [
        1,
        0.61942481994628906,
        0.061749331653118134,
        1
      ],
      "min": [
        0.43143141269683838,
        -0.90213179588317871,
        -0.13257966935634613,
        1
      ],
      "type": "VEC4"
    },
    {
      "bufferView": 1,
      "byteOffset": 15576,
      "componentType": 5126,
      "count": 12481,
      "max": [
        1,
        1
      ],
      "min": [
        0,
        0
      ],
      "type": "VEC2"
    },
    {
      "bufferView": 0,
      "byteOffset": 25368,
      "componentType": 5125,
      "count": 73728,
      "max": [
        12480
      ],
      "min": [
        0
      ],
      "type": "SCALAR"
    },
    {
      "bufferView": 2,
      "byteOffset": 346272,
      "componentType": 5126,
      "count": 1818,
      "max": [
        -12.745218276977539,
        17.067642211914062,
        5.8239574432373047
      ],
      "min": [
        -24.443389892578125,
        0.57472419738769531,
        -20.247579574584961
      ],
      "type": "VEC3"
    },
    {
      "bufferView": 2,
      "byteOffset": 368088,
      "componentType": 5126,
      "count": 1818,
      "max": [
        0.99777412414550781,
        0.99780237674713135,
        0.99831944704055786
      ],
      "min": [
        -0.99991852045059204,
        -0.99818116426467896,
        -0.99820524454116821
      ],
      "type": "VEC3"
    },
    {
      "bufferView": 3,
      "byteOffset": 230848,
      "componentType": 5126,
      "count": 1818,
      "max": [
        0.99900335073471069,
        0.99372404813766479,
        0.99948990345001221,
        1
      ],
      "min": [
        -0.99674218893051147,
        -0.99741053581237793,
        -0.99832683801651001,
        -1
      ],
      "type": "VEC4"
    },
    {
      "bufferView": 1,
      "byteOffset": 115424,
      "componentType": 5126,
      "count": 1818,
      "max": [
        0.94967341423034668,
        0.96687233448028564
      ],
      "min": [
        0.044632196426391602,
        0.0054257214069366455
      ],
      "type": "VEC2"
    },
    {
      "bufferView": 0,
      "byteOffset": 320280,
      "componentType": 5125,
      "count": 5490,
      "max": [
        1817
      ],
      "min": [
        0
      ],
      "type": "SCALAR"
    }
  ],
  "asset": {
    "extras": {
      "author": "Julia Lemke (https://sketchfab.com/julialemke)",
      "license": "CC-BY-4.0 (http://creativecommons.org/licenses/by/4.0/)",
      "source": "https://sketchfab.com/3d-models/wooden-sled-d6e1788fac4145cea6c80a08f30958d1",
      "title": "Wooden Sled"
    },
    "generator": "Sketchfab-7.17.0",
    "version": "2.0"
  },
  "bufferViews": [
    {
      "buffer": 0,
      "byteLength": 342240,
      "byteOffset": 0,
      "name": "floatBufferViews",
      "target": 34963
    },
    {
      "buffer": 0,
      "byteLength": 129968,
      "byteOffset": 342240,
      "byteStride": 8,
      "name": "floatBufferViews",
      "target": 34962
    },
    {
      "buffer": 0,
      "byteLength": 389904,
      "byteOffset": 472208,
      "byteStride": 12,
      "name": "floatBufferViews",
      "target": 34962
    },
    {
      "buffer": 0,
      "byteLength": 259936,
      "byteOffset": 862112,
      "byteStride": 16,
      "name": "floatBufferViews",
      "target": 34962
    }
  ],
  "buffers": [
    {
      "byteLength": 1122048,
      "uri": "scene.bin"
    }
  ],
  "images": [
    {
      "uri": "textures/lambert2_baseColor.png"
    },
    {
      "uri": "textures/lambert2_metallicRoughness.png"
    },
    {
      "uri": "textures/lambert2_normal.png"
    },
    {
      "uri": "textures/snow_baseColor.png"
    },
    {
      "uri": "textures/snow_metallicRoughness.png"
    },
    {
      "uri": "textures/snow_normal.png"
    },
    {
      "uri": "textures/seil_baseColor.png"
    },
    {
      "uri": "textures/seil_metallicRoughness.png"
    },
    {
      "uri": "textures/seil_normal.png"
    }
  ],
  "materials": [
    {
      "doubleSided": true,
      "emissiveFactor": [
        0,
        0,
        0
      ],
      "name": "lambert2",
      "normalTexture": {
        "index": 2,
        "scale": 1,
        "texCoord": 0
      },
      "pbrMetallicRoughness": {
        "baseColorFactor": [
          1,
          1,
          1,
          1
        ],
        "baseColorTexture": {
          "index": 0,
          "texCoord": 0
        },
        "metallicFactor": 0,
        "metallicRoughnessTexture": {
          "index": 1,
          "texCoord": 0
        },
        "roughnessFactor": 1
      }
    },
    {
      "doubleSided": true,
      "name": "snow",
      "normalTexture": {
        "index": 5,
        "scale": 1,
        "texCoord": 0
      },
      "pbrMetallicRoughness": {
        "baseColorFactor": [
          1,
          1,
          1,
          1
        ],
        "baseColorTexture": {
          "index": 3,
          "texCoord": 0
        },
        "metallicFactor": 1,
        "metallicRoughnessTexture": {
          "index": 4,
          "texCoord": 0
        },
        "roughnessFactor": 1
      }
    },
    {
      "doubleSided": true,
      "emissiveFactor": [
        0,
        0,
        0
      ],
      "name": "seil",
      "normalTexture": {
        "index": 8,
        "scale": 1,
        "texCoord": 0
      },
      "pbrMetallicRoughness": {
        "baseColorFactor": [
          1,
          1,
          1,
          1
        ],
        "baseColorTexture": {
          "index": 6,
          "texCoord": 0
        },
        "metallicFactor": 0,
        "metallicRoughnessTexture": {
          "index": 7,
          "texCoord": 0
        },
        "roughnessFactor": 1
      }
    }
  ],
  "meshes": [
    {
      "name": "pCube6_lambert2_0",
      "primitives": [
        {
          "attributes": {
            "NORMAL": 1,
            "POSITION": 0,
            "TANGENT": 2,
            "TEXCOORD_0": 3
          },
          "indices": 4,
          "material": 0,
          "mode": 4
        }
      ]
    },
    {
      "name": "pDisc1_snow_0",
      "primitives": [
        {
          "attributes": {
            "NORMAL": 6,
            "POSITION": 5,
            "TANGENT": 7,
            "TEXCOORD_0": 8
          },
          "indices": 9,
          "material": 1,
          "mode": 4
        }
      ]
    },
    {
      "name": "pCylinder4_seil_0",
      "primitives": [
        {
          "attributes": {
            "NORMAL": 11,
            "POSITION": 10,
            "TANGENT": 12,
            "TEXCOORD_0": 13
          },
          "indices": 14,
          "material": 2,
          "mode": 4
        }
      ]
    }
  ],
  "nodes": [
    {
      "children": [
        1
      ],
      "name": "RootNode (gltf orientation matrix)",
      "rotation": [
        -0.70710678118654746,
        -0,
        -0,
        0.70710678118654757
      ]
    },
    {
      "children": [
        2
      ],
      "name": "RootNode (model correction matrix)"
    },
    {
      "children": [
        3
      ],
      "matrix": [
        1,
        0,
        0,
        0,
        0,
        0,
        1,
        0,
        0,
        -1,
        0,
        0,
        0,
        0,
        0,
        1
      ],
      "name": "9a67f427dd354e01bb9fd08a6c62315b.fbx"
    },
    {
      "children": [
        4,
        6,
        8
      ],
      "name": "RootNode"
    },
    {
      "children": [
        5
      ],
      "name": "pCube6"
    },
    {
      "mesh": 0,
      "name": "pCube6_lambert2_0"
    },
    {
      "children": [
        7
      ],
      "name": "pDisc1"
    },
    {
      "mesh": 1,
      "name": "pDisc1_snow_0"
    },
    {
      "children": [
        9
      ],
      "name": "pCylinder4"
    },
    {
      "mesh": 2,
      "name": "pCylinder4_seil_0"
    }
  ],
  "samplers": [
    {
      "magFilter": 9729,
      "minFilter": 9987,
      "wrapS": 10497,
      "wrapT": 10497
    }
  ],
  "scene": 0,
  "scenes": [
    {
      "name": "OSG_Scene",
      "nodes": [
        0
      ]
    }
  ],
  "textures": [
    {
      "sampler": 0,
      "source": 0
    },
    {
      "sampler": 0,
      "source": 1
    },
    {
      "sampler": 0,
      "source": 2
    },
    {
      "sampler": 0,
      "source": 3
    },
    {
      "sampler": 0,
      "source": 4
    },
    {
      "sampler": 0,
      "source": 5
    },
    {
      "sampler": 0,
      "source": 6
    },
    {
      "sampler": 0,
      "source": 7
    },
    {
      "sampler": 0,
      "source": 8
    }
  ]
}

