{
  "accessors": [
    {
      "bufferView": 1,
      "componentType": 5126,
      "count": 978,
      "max": [
        14.628999710083008,
        2.1034400463104248,
        1.3325099945068359
      ],
      "min": [
        -15.080670356750488,
        -1.0146000385284424,
        -1.3325099945068359
      ],
      "type": "VEC3"
    },
    {
      "bufferView": 1,
      "byteOffset": 11736,
      "componentType": 5126,
      "count": 978,
      "max": [
        1,
        1,
        0.99971228837966919
      ],
      "min": [
        -0.92683112621307373,
        -1,
        -0.99971228837966919
      ],
      "type": "VEC3"
    },
    {
      "bufferView": 0,
      "componentType": 5125,
      "count": 1692,
      "max": [
        977
      ],
      "min": [
        0
      ],
      "type": "SCALAR"
    },
    {
      "bufferView": 1,
      "byteOffset": 23472,
      "componentType": 5126,
      "count": 84,
      "max": [
        14.482159614562988,
        2.0631000995635986,
        1.3325099945068359
      ],
      "min": [
        -14.352439880371094,
        -1.0146000385284424,
        -0.93097001314163208
      ],
      "type": "VEC3"
    },
    {
      "bufferView": 1,
      "byteOffset": 24480,
      "componentType": 5126,
      "count": 84,
      "max": [
        0.2037198394536972,
        0.9999852180480957,
        0.98302543163299561
      ],
      "min": [
        -0.46722826361656189,
        -0.99009060859680176,
        -0.98364615440368652
      ],
      "type": "VEC3"
    },
    {
      "bufferView": 0,
      "byteOffset": 6768,
      "componentType": 5125,
      "count": 132,
      "max": [
        83
      ],
      "min": [
        0
      ],
      "type": "SCALAR"
    },
    {
      "bufferView": 1,
      "byteOffset": 25488,
      "componentType": 5126,
      "count": 8,
      "max": [
        14.628999710083008,
        1.3052300214767456,
        0.14788000285625458
      ],
      "min": [
        14.413290023803711,
        1.1516900062561035,
        -0.14788000285625458
      ],
      "type": "VEC3"
    },
    {
      "bufferView": 1,
      "byteOffset": 25584,
      "componentType": 5126,
      "count": 8,
      "max": [
        -0.57053875923156738,
        0.61553871631622314,
        0.54368883371353149
      ],
      "min": [
        -0.57053875923156738,
        0.61553871631622314,
        -0.54368883371353149
      ],
      "type": "VEC3"
    },
    {
      "bufferView": 0,
      "byteOffset": 7296,
      "componentType": 5125,
      "count": 12,
      "max": [
        7
      ],
      "min": [
        0
      ],
      "type": "SCALAR"
    },
    {
      "bufferView": 1,
      "byteOffset": 25680,
      "componentType": 5126,
      "count": 240,
      "max": [
        0.95105999708175659,
        1,
        1
      ],
      "min": [
        -0.95105999708175659,
        -1,
        -1
      ],
      "type": "VEC3"
    },
    {
      "bufferView": 1,
      "byteOffset": 28560,
      "componentType": 5126,
      "count": 240,
      "max": [
        0.99207723140716553,
        0.94352102279663086,
        0.94352495670318604
      ],
      "min": [
        -0.99207723140716553,
        -0.94352102279663086,
        -0.94352495670318604
      ],
      "type": "VEC3"
    },
    {
      "bufferView": 0,
      "byteOffset": 7344,
      "componentType": 5125,
      "count": 240,
      "max": [
        239
      ],
      "min": [
        0
      ],
      "type": "SCALAR"
    },
    {
      "bufferView": 1,
      "byteOffset": 31440,
      "componentType": 5126,
      "count": 240,
      "max": [
        0.95105999708175659,
        1,
        1
      ],
      "min": [
        -0.95105999708175659,
        -1,
        -1
      ],
      "type": "VEC3"
    },
    {
      "bufferView": 1,
      "byteOffset": 34320,
      "componentType": 5126,
      "count": 240,
      "max": [
        0.99207723140716553,
        0.94352102279663086,
        0.94352495670318604
      ],
      "min": [
        -0.99207723140716553,
        -0.94352102279663086,
        -0.94352495670318604
      ],
      "type": "VEC3"
    },
    {
      "bufferView": 0,
      "byteOffset": 8304,
      "componentType": 5125,
      "count": 240,
      "max": [
        239
      ],
      "min": [
        0
      ],
      "type": "SCALAR"
    }
  ],
  "asset": {
    "extras": {
      "author": "Zafflex (https://sketchfab.com/Zafflex)",
      "license": "CC-BY-4.0 (http://creativecommons.org/licenses/by/4.0/)",
      "source": "https://sketchfab.com/3d-models/low-poly-seal-349887b87b9540319ef502edfc998412",
      "title": "Low-poly Seal"
    },
    "generator": "Sketchfab-6.33.0",
    "version": "2.0"
  },
  "bufferViews": [
    {
      "buffer": 0,
      "byteLength": 9264,
      "byteOffset": 0,
      "name": "floatBufferViews",
      "target": 34963
    },
    {
      "buffer": 0,
      "byteLength": 37200,
      "byteOffset": 9264,
      "byteStride": 12,
      "name": "floatBufferViews",
      "target": 34962
    }
  ],
  "buffers": [
    {
      "byteLength": 46464,
      "uri": "scene.bin"
    }
  ],
  "materials": [
    {
      "doubleSided": true,
      "emissiveFactor": [
        0,
        0,
        0
      ],
      "name": "seal",
      "pbrMetallicRoughness": {
        "baseColorFactor": [
          0.6859557033,
          0.60444742439999999,
          0.35592019559999999,
          1
        ],
        "metallicFactor": 0,
        "roughnessFactor": 0.59999999999999998
      }
    },
    {
      "doubleSided": true,
      "emissiveFactor": [
        0,
        0,
        0
      ],
      "name": "Seal_points",
      "pbrMetallicRoughness": {
        "baseColorFactor": [
          0.63827097420000001,
          0.51465600730000005,
          0.26250064369999998,
          1
        ],
        "metallicFactor": 0,
        "roughnessFactor": 0.59999999999999998
      }
    },
    {
      "doubleSided": true,
      "emissiveFactor": [
        0,
        0,
        0
      ],
      "name": "Seal_eye",
      "pbrMetallicRoughness": {
        "baseColorFactor": [
          0.0122167887,
          0.0122167887,
          0.0122167887,
          1
        ],
        "metallicFactor": 0,
        "roughnessFactor": 0.59999999999999998
      }
    },
    {
      "doubleSided": true,
      "emissiveFactor": [
        0,
        0,
        0
      ],
      "name": "Seal_eye.001",
      "pbrMetallicRoughness": {
        "baseColorFactor": [
          0.0122167887,
          0.0122167887,
          0.0122167887,
          1
        ],
        "metallicFactor": 0,
        "roughnessFactor": 0.59999999999999998
      }
    }
  ],
  "meshes": [
    {
      "name": "Plane_0",
      "primitives": [
        {
          "attributes": {
            "NORMAL": 1,
            "POSITION": 0
          },
          "indices": 2,
          "material": 0,
          "mode": 4
        }
      ]
    },
    {
      "name": "Plane_1",
      "primitives": [
        {
          "attributes": {
            "NORMAL": 4,
            "POSITION": 3
          },
          "indices": 5,
          "material": 1,
          "mode": 4
        }
      ]
    },
    {
      "name": "Plane_2",
      "primitives": [
        {
          "attributes": {
            "NORMAL": 7,
            "POSITION": 6
          },
          "indices": 8,
          "material": 2,
          "mode": 4
        }
      ]
    },
    {
      "name": "Icosphere_0",
      "primitives": [
        {
          "attributes": {
            "NORMAL": 10,
            "POSITION": 9
          },
          "indices": 11,
          "material": 2,
          "mode": 4
        }
      ]
    },
    {
      "name": "Icosphere.001_0",
      "primitives": [
        {
          "attributes": {
            "NORMAL": 13,
            "POSITION": 12
          },
          "indices": 14,
          "material": 3,
          "mode": 4
        }
      ]
    }
  ],
  "nodes": [
    {
      "children": [
        1
      ],
      "name": "RootNode (gltf orientation matrix)",
      "rotation": [
        -0.70710678118654746,
        -0,
        -0,
        0.70710678118654757
      ]
    },
    {
      "children": [
        2
      ],
      "name": "RootNode (model correction matrix)"
    },
    {
      "children": [
        3
      ],
      "name": "Root"
    },
    {
      "children": [
        4,
        5,
        6,
        7,
        9
      ],
      "matrix": [
        0.25928999999999996,
        0,
        0,
        0,
        0,
        -0,
        0.77185000000000004,
        0,
        0,
        -0.77185000000000004,
        -0,
        0,
        -0.060450000000000011,
        0,
        -0.57424000000000008,
        1
      ],
      "name": "Plane"
    },
    {
      "mesh": 0,
      "name": "Plane_0"
    },
    {
      "mesh": 1,
      "name": "Plane_1"
    },
    {
      "mesh": 2,
      "name": "Plane_2"
    },
    {
      "children": [
        8
      ],
      "matrix": [
        0.29827000000000004,
        0,
        0,
        0,
        0,
        -0,
        -0.10020000000000001,
        0,
        0,
        0.10020000000000001,
        -0,
        0,
        13.104569999999999,
        1.7293000000000001,
        -0.19434000000000004,
        1
      ],
      "name": "Icosphere"
    },
    {
      "mesh": 3,
      "name": "Icosphere_0"
    },
    {
      "children": [
        10
      ],
      "matrix": [
        0.29827000000000004,
        0,
        0,
        0,
        0,
        -0,
        -0.10020000000000001,
        0,
        0,
        0.10020000000000001,
        -0,
        0,
        13.104569999999999,
        1.7293000000000001,
        0.19434000000000004,
        1
      ],
      "name": "Icosphere.001"
    },
    {
      "mesh": 4,
      "name": "Icosphere.001_0"
    }
  ],
  "scene": 0,
  "scenes": [
    {
      "name": "OSG_Scene",
      "nodes": [
        0
      ]
    }
  ]
}

